<svg width="320" height="320" viewBox="0 0 320 320" fill="none" xmlns="http://www.w3.org/2000/svg">
  <defs>
    <linearGradient id="bg" x1="40" y1="30" x2="280" y2="290" gradientUnits="userSpaceOnUse">
      <stop stop-color="#0B1220" />
      <stop offset="1" stop-color="#06080F" />
    </linearGradient>
    <linearGradient id="ring" x1="36" y1="28" x2="278" y2="292" gradientUnits="userSpaceOnUse">
      <stop stop-color="#2DD4FF" stop-opacity="0.9" />
      <stop offset="0.5" stop-color="#22D3A3" stop-opacity="0.9" />
      <stop offset="1" stop-color="#FF9F43" stop-opacity="0.9" />
    </linearGradient>
    <radialGradient id="glow" cx="0" cy="0" r="1" gradientUnits="userSpaceOnUse" gradientTransform="translate(110 96) rotate(45) scale(180 160)">
      <stop stop-color="#2DD4FF" stop-opacity="0.4" />
      <stop offset="1" stop-color="#2DD4FF" stop-opacity="0" />
    </radialGradient>
    <linearGradient id="c" x1="92" y1="86" x2="238" y2="234" gradientUnits="userSpaceOnUse">
      <stop stop-color="#FFFFFF" />
      <stop offset="1" stop-color="#E8F6FF" stop-opacity="0.86" />
    </linearGradient>
  </defs>
  <rect width="320" height="320" rx="36" fill="url(#bg)" />
  <rect x="14" y="14" width="292" height="292" rx="28" fill="url(#glow)" />
  <rect x="14" y="14" width="292" height="292" rx="28" stroke="url(#ring)" stroke-width="3" />
  <path d="M165 70C110 70 70 110 70 164.5C70 219 110 259 164.5 259C203 259 230.5 241.5 247 211.5C251.5 203 246.5 192.5 236.5 192.5H223.5C217 192.5 211.5 197.5 210.5 203.5C206.5 223 191.5 235 167.5 235C133.5 235 110.5 209 110.5 164.5C110.5 120 134 94 167.5 94C191 94 206 106.5 210.5 125.5C212 132.5 217.5 137.5 224.5 137.5H237C247.5 137.5 252 127.5 247 119C230.5 88.5 204.5 70 165 70Z" fill="url(#c)" />
  <circle cx="232" cy="84" r="14" fill="#FF9F43" />
  <circle cx="246" cy="102" r="10" fill="#2DD4FF" fill-opacity="0.9" />
  <circle cx="94" cy="240" r="9" fill="#22D3A3" fill-opacity="0.9" />
</svg>
