<svg width="280" height="280" viewBox="0 0 280 280" fill="none" xmlns="http://www.w3.org/2000/svg">
  <defs>
    <linearGradient id="bg" x1="32" y1="18" x2="248" y2="262" gradientUnits="userSpaceOnUse">
      <stop stop-color="#0B1220" />
      <stop offset="1" stop-color="#101626" />
    </linearGradient>
    <linearGradient id="ring" x1="22" y1="20" x2="258" y2="254" gradientUnits="userSpaceOnUse">
      <stop stop-color="#2DD4FF" />
      <stop offset="0.5" stop-color="#22D3A3" />
      <stop offset="1" stop-color="#FF9F43" />
    </linearGradient>
    <linearGradient id="shirt" x1="84" y1="186" x2="208" y2="228" gradientUnits="userSpaceOnUse">
      <stop stop-color="#0EA5E9" />
      <stop offset="1" stop-color="#22D3A3" />
    </linearGradient>
    <linearGradient id="shadow" x1="116" y1="122" x2="196" y2="184" gradientUnits="userSpaceOnUse">
      <stop stop-color="#0F172A" stop-opacity="0.5" />
      <stop offset="1" stop-color="#0F172A" stop-opacity="0" />
    </linearGradient>
  </defs>
  <rect x="10" y="10" width="260" height="260" rx="44" fill="url(#bg)" />
  <rect x="10" y="10" width="260" height="260" rx="44" stroke="url(#ring)" stroke-width="3" />
  <circle cx="140" cy="134" r="78" fill="#0F172A" />
  <circle cx="140" cy="124" r="70" fill="#19233A" />
  <path d="M92 182C110 165 118 154 118 140V136H164V142C164 155 173 167 190 182C199 190 206 202 206 215C206 238 186 250 140 250C94 250 74 238 74 215C74 201 82 190 92 182Z" fill="url(#shirt)" />
  <path d="M110 144C110 110 125 92 148 92C171 92 186 111 186 142C186 176 170 194 144 194C118 194 110 176 110 144Z" fill="#F9E8D5" />
  <path d="M118 130C118 112 128 102 146 102C162 102 172 112 172 128C172 142 167 154 156 160L146 166L136 160C125 154 118 142 118 130Z" fill="#F2D7BC" />
  <path d="M112 124C112 104 129 90 151 90C171 90 188 100 190 120C186 118 180 118 176 122C166 118 150 118 140 118C130 118 118 123 118 136C116 134 114 130 112 124Z" fill="#0F172A" />
  <circle cx="120" cy="136" r="4" fill="#0F172A" />
  <circle cx="160" cy="136" r="4" fill="#0F172A" />
  <path d="M132 150C136 156 144 160 150 160" stroke="#0F172A" stroke-width="4" stroke-linecap="round" />
  <path d="M132 170C140 176 152 178 164 174" stroke="#0EA5E9" stroke-width="4" stroke-linecap="round" />
  <path d="M102 122C104 112 118 90 150 90C182 90 196 110 198 120" stroke="#0F172A" stroke-width="8" stroke-linecap="round" />
  <path d="M88 228C104 210 120 204 140 204C160 204 176 210 192 228" stroke="#0EA5E9" stroke-width="6" stroke-linecap="round" />
  <circle cx="90" cy="90" r="10" fill="#2DD4FF" fill-opacity="0.7" />
  <circle cx="210" cy="98" r="8" fill="#FF9F43" fill-opacity="0.8" />
  <rect x="90" y="204" width="100" height="60" rx="30" fill="url(#shadow)" />
</svg>
